<svg xmlns="http://www.w3.org/2000/svg" xmlns:xlink="http://www.w3.org/1999/xlink" contentStyleType="text/css" height="1393px" preserveAspectRatio="none" style="width:1955px;height:1393px;background:#FFFFFF;" version="1.1" viewBox="0 0 1955 1393" width="1955px" zoomAndPan="magnify"><defs/><g><!--cluster Model--><g id="cluster_Model"><rect fill="none" height="501" rx="2.5" ry="2.5" style="stroke:#000000;stroke-width:1.5;" width="549" x="7" y="886.5"/><text fill="#000000" font-family="sans-serif" font-size="14" font-weight="bold" lengthAdjust="spacing" textLength="47.8652" x="257.5674" y="901.4951">Model</text></g><!--cluster Service--><g id="cluster_Service"><rect fill="none" height="405.5" rx="2.5" ry="2.5" style="stroke:#000000;stroke-width:1.5;" width="815" x="357" y="251"/><text fill="#000000" font-family="sans-serif" font-size="14" font-weight="bold" lengthAdjust="spacing" textLength="58.2012" x="735.3994" y="265.9951">Service</text></g><!--cluster Persistence--><g id="cluster_Persistence"><rect fill="none" height="132" rx="2.5" ry="2.5" style="stroke:#000000;stroke-width:1.5;" width="408" x="783" y="705.5"/><text fill="#000000" font-family="sans-serif" font-size="14" font-weight="bold" lengthAdjust="spacing" textLength="92.0732" x="940.9634" y="720.4951">Persistence</text></g><!--cluster UI--><g id="cluster_UI"><rect fill="none" height="440.5" rx="2.5" ry="2.5" style="stroke:#000000;stroke-width:1.5;" width="753" x="1196" y="7"/><text fill="#000000" font-family="sans-serif" font-size="14" font-weight="bold" lengthAdjust="spacing" textLength="16.5771" x="1564.2114" y="21.9951">UI</text></g><!--class Fahrzeug--><g id="elem_Fahrzeug"><rect codeLine="4" fill="#F1F1F1" height="276.1563" id="Fahrzeug" rx="2.5" ry="2.5" style="stroke:#181818;stroke-width:0.5;" width="259.3584" x="278.5" y="921.5"/><ellipse cx="371.438" cy="937.5" fill="#A9DCDF" rx="11" ry="11" style="stroke:#181818;stroke-width:1;"/><path d="M371.5474,932.8438 L370.3911,937.9219 L372.7192,937.9219 L371.5474,932.8438 Z M370.063,930.6094 L373.0474,930.6094 L376.4067,943 L373.9536,943 L373.188,939.9375 L369.9067,939.9375 L369.1567,943 L366.7192,943 L370.063,930.6094 Z " fill="#000000"/><text fill="#000000" font-family="sans-serif" font-size="14" font-style="italic" lengthAdjust="spacing" textLength="64.9824" x="391.938" y="942.3467">Fahrzeug</text><line style="stroke:#181818;stroke-width:0.5;" x1="279.5" x2="536.8584" y1="953.5" y2="953.5"/><rect fill="none" height="6" style="stroke:#C82930;stroke-width:1;" width="6" x="286.5" y="964.1484"/><text fill="#000000" font-family="sans-serif" font-size="14" lengthAdjust="spacing" textLength="139.3232" x="298.5" y="970.4951">kennzeichen: String</text><rect fill="none" height="6" style="stroke:#C82930;stroke-width:1;" width="6" x="286.5" y="980.4453"/><text fill="#000000" font-family="sans-serif" font-size="14" lengthAdjust="spacing" textLength="95.6416" x="298.5" y="986.792">marke: String</text><rect fill="none" height="6" style="stroke:#C82930;stroke-width:1;" width="6" x="286.5" y="996.7422"/><text fill="#000000" font-family="sans-serif" font-size="14" lengthAdjust="spacing" textLength="98.4307" x="298.5" y="1003.0889">modell: String</text><rect fill="none" height="6" style="stroke:#C82930;stroke-width:1;" width="6" x="286.5" y="1013.0391"/><text fill="#000000" font-family="sans-serif" font-size="14" lengthAdjust="spacing" textLength="91.3213" x="298.5" y="1019.3857">preis: double</text><rect fill="none" height="6" style="stroke:#C82930;stroke-width:1;" width="6" x="286.5" y="1029.3359"/><text fill="#000000" font-family="sans-serif" font-size="14" lengthAdjust="spacing" textLength="73.6094" x="298.5" y="1035.6826">typ: String</text><line style="stroke:#181818;stroke-width:0.5;" x1="279.5" x2="536.8584" y1="1042.9844" y2="1042.9844"/><ellipse cx="289.5" cy="1056.6328" fill="#84BE84" rx="3" ry="3" style="stroke:#038048;stroke-width:1;"/><text fill="#000000" font-family="sans-serif" font-size="14" lengthAdjust="spacing" textLength="174.3096" x="298.5" y="1059.9795">getKennzeichen(): String</text><ellipse cx="289.5" cy="1072.9297" fill="#84BE84" rx="3" ry="3" style="stroke:#038048;stroke-width:1;"/><text fill="#000000" font-family="sans-serif" font-size="14" lengthAdjust="spacing" textLength="127.9961" x="298.5" y="1076.2764">getMarke(): String</text><ellipse cx="289.5" cy="1089.2266" fill="#84BE84" rx="3" ry="3" style="stroke:#038048;stroke-width:1;"/><text fill="#000000" font-family="sans-serif" font-size="14" lengthAdjust="spacing" textLength="209.8906" x="298.5" y="1092.5732">setMarke(marke: String): void</text><ellipse cx="289.5" cy="1105.5234" fill="#84BE84" rx="3" ry="3" style="stroke:#038048;stroke-width:1;"/><text fill="#000000" font-family="sans-serif" font-size="14" lengthAdjust="spacing" textLength="130.7852" x="298.5" y="1108.8701">getModell(): String</text><ellipse cx="289.5" cy="1121.8203" fill="#84BE84" rx="3" ry="3" style="stroke:#038048;stroke-width:1;"/><text fill="#000000" font-family="sans-serif" font-size="14" lengthAdjust="spacing" textLength="215.4688" x="298.5" y="1125.167">setModell(modell: String): void</text><ellipse cx="289.5" cy="1138.1172" fill="#84BE84" rx="3" ry="3" style="stroke:#038048;stroke-width:1;"/><text fill="#000000" font-family="sans-serif" font-size="14" lengthAdjust="spacing" textLength="124.79" x="298.5" y="1141.4639">getPreis(): double</text><ellipse cx="289.5" cy="1154.4141" fill="#84BE84" rx="3" ry="3" style="stroke:#038048;stroke-width:1;"/><text fill="#000000" font-family="sans-serif" font-size="14" lengthAdjust="spacing" textLength="196.4307" x="298.5" y="1157.7607">setPreis(preis: double): void</text><ellipse cx="289.5" cy="1170.7109" fill="#84BE84" rx="3" ry="3" style="stroke:#038048;stroke-width:1;"/><text fill="#000000" font-family="sans-serif" font-size="14" lengthAdjust="spacing" textLength="110.585" x="298.5" y="1174.0576">getTyp(): String</text><ellipse cx="289.5" cy="1187.0078" fill="#84BE84" rx="3" ry="3" style="stroke:#038048;stroke-width:1;"/><text fill="#000000" font-family="sans-serif" font-size="14" lengthAdjust="spacing" textLength="233.3584" x="298.5" y="1190.3545">berechneAktuellenWert(): double</text></g><!--class PKW--><g id="elem_PKW"><rect codeLine="21" fill="#F1F1F1" height="113.1875" id="PKW" rx="2.5" ry="2.5" style="stroke:#181818;stroke-width:0.5;" width="213.4072" x="22.5" y="1258.5"/><ellipse cx="109.2207" cy="1274.5" fill="#ADD1B2" rx="11" ry="11" style="stroke:#181818;stroke-width:1;"/><path d="M112.1895,1280.1406 Q111.6113,1280.4375 110.9707,1280.5781 Q110.3301,1280.7344 109.627,1280.7344 Q107.127,1280.7344 105.7988,1279.0938 Q104.4863,1277.4375 104.4863,1274.3125 Q104.4863,1271.1875 105.7988,1269.5313 Q107.127,1267.875 109.627,1267.875 Q110.3301,1267.875 110.9707,1268.0313 Q111.627,1268.1875 112.1895,1268.4844 L112.1895,1271.2031 Q111.5645,1270.625 110.9707,1270.3594 Q110.377,1270.0781 109.752,1270.0781 Q108.4082,1270.0781 107.7207,1271.1563 Q107.0332,1272.2188 107.0332,1274.3125 Q107.0332,1276.4063 107.7207,1277.4844 Q108.4082,1278.5469 109.752,1278.5469 Q110.377,1278.5469 110.9707,1278.2813 Q111.5645,1278 112.1895,1277.4219 L112.1895,1280.1406 Z " fill="#000000"/><text fill="#000000" font-family="sans-serif" font-size="14" lengthAdjust="spacing" textLength="31.4658" x="129.7207" y="1279.3467">PKW</text><line style="stroke:#181818;stroke-width:0.5;" x1="23.5" x2="234.9072" y1="1290.5" y2="1290.5"/><rect fill="none" height="6" style="stroke:#C82930;stroke-width:1;" width="6" x="30.5" y="1301.1484"/><text fill="#000000" font-family="sans-serif" font-size="14" lengthAdjust="spacing" textLength="102.8604" x="42.5" y="1307.4951">sitzplaetze: int</text><rect fill="none" height="6" style="stroke:#C82930;stroke-width:1;" width="6" x="30.5" y="1317.4453"/><text fill="#000000" font-family="sans-serif" font-size="14" lengthAdjust="spacing" textLength="174.6787" x="42.5" y="1323.792">hatKlimaanlage: boolean</text><line style="stroke:#181818;stroke-width:0.5;" x1="23.5" x2="234.9072" y1="1331.0938" y2="1331.0938"/><ellipse cx="33.5" cy="1344.7422" fill="#84BE84" rx="3" ry="3" style="stroke:#038048;stroke-width:1;"/><text fill="#000000" font-family="sans-serif" font-size="14" lengthAdjust="spacing" textLength="138.3662" x="42.5" y="1348.0889">getSitzplaetze(): int</text><ellipse cx="33.5" cy="1361.0391" fill="#84BE84" rx="3" ry="3" style="stroke:#038048;stroke-width:1;"/><text fill="#000000" font-family="sans-serif" font-size="14" lengthAdjust="spacing" textLength="187.4072" x="42.5" y="1364.3857">hasKlimaanlage(): boolean</text></g><!--class LKW--><g id="elem_LKW"><rect codeLine="28" fill="#F1F1F1" height="113.1875" id="LKW" rx="2.5" ry="2.5" style="stroke:#181818;stroke-width:0.5;" width="268.7305" x="270.5" y="1258.5"/><ellipse cx="385.2036" cy="1274.5" fill="#ADD1B2" rx="11" ry="11" style="stroke:#181818;stroke-width:1;"/><path d="M388.1724,1280.1406 Q387.5942,1280.4375 386.9536,1280.5781 Q386.313,1280.7344 385.6099,1280.7344 Q383.1099,1280.7344 381.7817,1279.0938 Q380.4692,1277.4375 380.4692,1274.3125 Q380.4692,1271.1875 381.7817,1269.5313 Q383.1099,1267.875 385.6099,1267.875 Q386.313,1267.875 386.9536,1268.0313 Q387.6099,1268.1875 388.1724,1268.4844 L388.1724,1271.2031 Q387.5474,1270.625 386.9536,1270.3594 Q386.3599,1270.0781 385.7349,1270.0781 Q384.3911,1270.0781 383.7036,1271.1563 Q383.0161,1272.2188 383.0161,1274.3125 Q383.0161,1276.4063 383.7036,1277.4844 Q384.3911,1278.5469 385.7349,1278.5469 Q386.3599,1278.5469 386.9536,1278.2813 Q387.5474,1278 388.1724,1277.4219 L388.1724,1280.1406 Z " fill="#000000"/><text fill="#000000" font-family="sans-serif" font-size="14" lengthAdjust="spacing" textLength="30.8232" x="405.7036" y="1279.3467">LKW</text><line style="stroke:#181818;stroke-width:0.5;" x1="271.5" x2="538.2305" y1="1290.5" y2="1290.5"/><rect fill="none" height="6" style="stroke:#C82930;stroke-width:1;" width="6" x="278.5" y="1301.1484"/><text fill="#000000" font-family="sans-serif" font-size="14" lengthAdjust="spacing" textLength="160.4121" x="290.5" y="1307.4951">ladekapazitaet: double</text><rect fill="none" height="6" style="stroke:#C82930;stroke-width:1;" width="6" x="278.5" y="1317.4453"/><text fill="#000000" font-family="sans-serif" font-size="14" lengthAdjust="spacing" textLength="230.002" x="290.5" y="1323.792">hatAnhaengerkupplung: boolean</text><line style="stroke:#181818;stroke-width:0.5;" x1="271.5" x2="538.2305" y1="1331.0938" y2="1331.0938"/><ellipse cx="281.5" cy="1344.7422" fill="#84BE84" rx="3" ry="3" style="stroke:#038048;stroke-width:1;"/><text fill="#000000" font-family="sans-serif" font-size="14" lengthAdjust="spacing" textLength="198.2354" x="290.5" y="1348.0889">getLadekapazitaet(): double</text><ellipse cx="281.5" cy="1361.0391" fill="#84BE84" rx="3" ry="3" style="stroke:#038048;stroke-width:1;"/><text fill="#000000" font-family="sans-serif" font-size="14" lengthAdjust="spacing" textLength="242.7305" x="290.5" y="1364.3857">hasAnhaengerkupplung(): boolean</text></g><!--class FahrzeugService--><g id="elem_FahrzeugService"><rect codeLine="37" fill="#F1F1F1" height="129.4844" id="FahrzeugService" rx="2.5" ry="2.5" style="stroke:#181818;stroke-width:0.5;" width="338.3682" x="818" y="286"/><ellipse cx="924.5723" cy="302" fill="#B4A7E5" rx="11" ry="11" style="stroke:#181818;stroke-width:1;"/><path d="M920.4941,297.7656 L920.4941,295.6094 L927.8848,295.6094 L927.8848,297.7656 L925.416,297.7656 L925.416,305.8438 L927.8848,305.8438 L927.8848,308 L920.4941,308 L920.4941,305.8438 L922.9629,305.8438 L922.9629,297.7656 L920.4941,297.7656 Z " fill="#000000"/><text fill="#000000" font-family="sans-serif" font-size="14" font-style="italic" lengthAdjust="spacing" textLength="116.7236" x="945.0723" y="306.8467">FahrzeugService</text><line style="stroke:#181818;stroke-width:0.5;" x1="819" x2="1155.3682" y1="318" y2="318"/><line style="stroke:#181818;stroke-width:0.5;" x1="819" x2="1155.3682" y1="326" y2="326"/><ellipse cx="829" cy="339.6484" fill="#84BE84" rx="3" ry="3" style="stroke:#038048;stroke-width:1;"/><text fill="#000000" font-family="sans-serif" font-size="14" lengthAdjust="spacing" textLength="277.0605" x="838" y="342.9951">addFahrzeug(fahrzeug: Fahrzeug): void</text><ellipse cx="829" cy="355.9453" fill="#84BE84" rx="3" ry="3" style="stroke:#038048;stroke-width:1;"/><text fill="#000000" font-family="sans-serif" font-size="14" lengthAdjust="spacing" textLength="300.0361" x="838" y="359.292">updateFahrzeug(fahrzeug: Fahrzeug): void</text><ellipse cx="829" cy="372.2422" fill="#84BE84" rx="3" ry="3" style="stroke:#038048;stroke-width:1;"/><text fill="#000000" font-family="sans-serif" font-size="14" lengthAdjust="spacing" textLength="312.3682" x="838" y="375.5889">getFahrzeug(kennzeichen: String): Fahrzeug</text><ellipse cx="829" cy="388.5391" fill="#84BE84" rx="3" ry="3" style="stroke:#038048;stroke-width:1;"/><text fill="#000000" font-family="sans-serif" font-size="14" lengthAdjust="spacing" textLength="255.5615" x="838" y="391.8857">getAlleFahrzeuge(): List&lt;Fahrzeug&gt;</text><ellipse cx="829" cy="404.8359" fill="#84BE84" rx="3" ry="3" style="stroke:#038048;stroke-width:1;"/><text fill="#000000" font-family="sans-serif" font-size="14" lengthAdjust="spacing" textLength="298.1289" x="838" y="408.1826">deleteFahrzeug(kennzeichen: String): void</text></g><!--class FahrzeugServiceImpl--><g id="elem_FahrzeugServiceImpl"><rect codeLine="45" fill="#F1F1F1" height="145.7813" id="FahrzeugServiceImpl" rx="2.5" ry="2.5" style="stroke:#181818;stroke-width:0.5;" width="338.3682" x="818" y="494.5"/><ellipse cx="909.3008" cy="510.5" fill="#ADD1B2" rx="11" ry="11" style="stroke:#181818;stroke-width:1;"/><path d="M912.2695,516.1406 Q911.6914,516.4375 911.0508,516.5781 Q910.4102,516.7344 909.707,516.7344 Q907.207,516.7344 905.8789,515.0938 Q904.5664,513.4375 904.5664,510.3125 Q904.5664,507.1875 905.8789,505.5313 Q907.207,503.875 909.707,503.875 Q910.4102,503.875 911.0508,504.0313 Q911.707,504.1875 912.2695,504.4844 L912.2695,507.2031 Q911.6445,506.625 911.0508,506.3594 Q910.457,506.0781 909.832,506.0781 Q908.4883,506.0781 907.8008,507.1563 Q907.1133,508.2188 907.1133,510.3125 Q907.1133,512.4063 907.8008,513.4844 Q908.4883,514.5469 909.832,514.5469 Q910.457,514.5469 911.0508,514.2813 Q911.6445,514 912.2695,513.4219 L912.2695,516.1406 Z " fill="#000000"/><text fill="#000000" font-family="sans-serif" font-size="14" lengthAdjust="spacing" textLength="147.2666" x="929.8008" y="515.3467">FahrzeugServiceImpl</text><line style="stroke:#181818;stroke-width:0.5;" x1="819" x2="1155.3682" y1="526.5" y2="526.5"/><rect fill="none" height="6" style="stroke:#C82930;stroke-width:1;" width="6" x="826" y="537.1484"/><text fill="#000000" font-family="sans-serif" font-size="14" lengthAdjust="spacing" textLength="235.7441" x="838" y="543.4951">persistence: FahrzeugPersistence</text><line style="stroke:#181818;stroke-width:0.5;" x1="819" x2="1155.3682" y1="550.7969" y2="550.7969"/><ellipse cx="829" cy="564.4453" fill="#84BE84" rx="3" ry="3" style="stroke:#038048;stroke-width:1;"/><text fill="#000000" font-family="sans-serif" font-size="14" lengthAdjust="spacing" textLength="277.0605" x="838" y="567.792">addFahrzeug(fahrzeug: Fahrzeug): void</text><ellipse cx="829" cy="580.7422" fill="#84BE84" rx="3" ry="3" style="stroke:#038048;stroke-width:1;"/><text fill="#000000" font-family="sans-serif" font-size="14" lengthAdjust="spacing" textLength="300.0361" x="838" y="584.0889">updateFahrzeug(fahrzeug: Fahrzeug): void</text><ellipse cx="829" cy="597.0391" fill="#84BE84" rx="3" ry="3" style="stroke:#038048;stroke-width:1;"/><text fill="#000000" font-family="sans-serif" font-size="14" lengthAdjust="spacing" textLength="312.3682" x="838" y="600.3857">getFahrzeug(kennzeichen: String): Fahrzeug</text><ellipse cx="829" cy="613.3359" fill="#84BE84" rx="3" ry="3" style="stroke:#038048;stroke-width:1;"/><text fill="#000000" font-family="sans-serif" font-size="14" lengthAdjust="spacing" textLength="255.5615" x="838" y="616.6826">getAlleFahrzeuge(): List&lt;Fahrzeug&gt;</text><ellipse cx="829" cy="629.6328" fill="#84BE84" rx="3" ry="3" style="stroke:#038048;stroke-width:1;"/><text fill="#000000" font-family="sans-serif" font-size="14" lengthAdjust="spacing" textLength="298.1289" x="838" y="632.9795">deleteFahrzeug(kennzeichen: String): void</text></g><!--class FahrzeugFactory--><g id="elem_FahrzeugFactory"><rect codeLine="54" fill="#F1F1F1" height="80.5938" id="FahrzeugFactory" rx="2.5" ry="2.5" style="stroke:#181818;stroke-width:0.5;" width="408.8057" x="373.5" y="310"/><ellipse cx="514.9492" cy="326" fill="#B4A7E5" rx="11" ry="11" style="stroke:#181818;stroke-width:1;"/><path d="M510.8711,321.7656 L510.8711,319.6094 L518.2617,319.6094 L518.2617,321.7656 L515.793,321.7656 L515.793,329.8438 L518.2617,329.8438 L518.2617,332 L510.8711,332 L510.8711,329.8438 L513.3398,329.8438 L513.3398,321.7656 L510.8711,321.7656 Z " fill="#000000"/><text fill="#000000" font-family="sans-serif" font-size="14" font-style="italic" lengthAdjust="spacing" textLength="117.4072" x="535.4492" y="330.8467">FahrzeugFactory</text><line style="stroke:#181818;stroke-width:0.5;" x1="374.5" x2="781.3057" y1="342" y2="342"/><line style="stroke:#181818;stroke-width:0.5;" x1="374.5" x2="781.3057" y1="350" y2="350"/><ellipse cx="384.5" cy="363.6484" fill="#84BE84" rx="3" ry="3" style="stroke:#038048;stroke-width:1;"/><text fill="#000000" font-family="sans-serif" font-size="14" lengthAdjust="spacing" textLength="341.4756" x="393.5" y="366.9951">createFahrzeug(typ: String, kennzeichen: String,</text><text fill="#000000" font-family="sans-serif" font-size="14" lengthAdjust="spacing" textLength="382.8057" x="393.5" y="383.292">marke: String, modell: String, preis: double): Fahrzeug</text></g><!--class FahrzeugFactoryImpl--><g id="elem_FahrzeugFactoryImpl"><rect codeLine="59" fill="#F1F1F1" height="80.5938" id="FahrzeugFactoryImpl" rx="2.5" ry="2.5" style="stroke:#181818;stroke-width:0.5;" width="408.8057" x="373.5" y="527"/><ellipse cx="499.6777" cy="543" fill="#ADD1B2" rx="11" ry="11" style="stroke:#181818;stroke-width:1;"/><path d="M502.6465,548.6406 Q502.0684,548.9375 501.4277,549.0781 Q500.7871,549.2344 500.084,549.2344 Q497.584,549.2344 496.2559,547.5938 Q494.9434,545.9375 494.9434,542.8125 Q494.9434,539.6875 496.2559,538.0313 Q497.584,536.375 500.084,536.375 Q500.7871,536.375 501.4277,536.5313 Q502.084,536.6875 502.6465,536.9844 L502.6465,539.7031 Q502.0215,539.125 501.4277,538.8594 Q500.834,538.5781 500.209,538.5781 Q498.8652,538.5781 498.1777,539.6563 Q497.4902,540.7188 497.4902,542.8125 Q497.4902,544.9063 498.1777,545.9844 Q498.8652,547.0469 500.209,547.0469 Q500.834,547.0469 501.4277,546.7813 Q502.0215,546.5 502.6465,545.9219 L502.6465,548.6406 Z " fill="#000000"/><text fill="#000000" font-family="sans-serif" font-size="14" lengthAdjust="spacing" textLength="147.9502" x="520.1777" y="547.8467">FahrzeugFactoryImpl</text><line style="stroke:#181818;stroke-width:0.5;" x1="374.5" x2="781.3057" y1="559" y2="559"/><line style="stroke:#181818;stroke-width:0.5;" x1="374.5" x2="781.3057" y1="567" y2="567"/><ellipse cx="384.5" cy="580.6484" fill="#84BE84" rx="3" ry="3" style="stroke:#038048;stroke-width:1;"/><text fill="#000000" font-family="sans-serif" font-size="14" lengthAdjust="spacing" textLength="341.4756" x="393.5" y="583.9951">createFahrzeug(typ: String, kennzeichen: String,</text><text fill="#000000" font-family="sans-serif" font-size="14" lengthAdjust="spacing" textLength="382.8057" x="393.5" y="600.292">marke: String, modell: String, preis: double): Fahrzeug</text></g><!--class FahrzeugPersistence--><g id="elem_FahrzeugPersistence"><rect codeLine="66" fill="#F1F1F1" height="80.5938" id="FahrzeugPersistence" rx="2.5" ry="2.5" style="stroke:#181818;stroke-width:0.5;" width="374.6396" x="799.5" y="740.5"/><ellipse cx="909.791" cy="756.5" fill="#ADD1B2" rx="11" ry="11" style="stroke:#181818;stroke-width:1;"/><path d="M912.7598,762.1406 Q912.1816,762.4375 911.541,762.5781 Q910.9004,762.7344 910.1973,762.7344 Q907.6973,762.7344 906.3691,761.0938 Q905.0566,759.4375 905.0566,756.3125 Q905.0566,753.1875 906.3691,751.5313 Q907.6973,749.875 910.1973,749.875 Q910.9004,749.875 911.541,750.0313 Q912.1973,750.1875 912.7598,750.4844 L912.7598,753.2031 Q912.1348,752.625 911.541,752.3594 Q910.9473,752.0781 910.3223,752.0781 Q908.9785,752.0781 908.291,753.1563 Q907.6035,754.2188 907.6035,756.3125 Q907.6035,758.4063 908.291,759.4844 Q908.9785,760.5469 910.3223,760.5469 Q910.9473,760.5469 911.541,760.2813 Q912.1348,760 912.7598,759.4219 L912.7598,762.1406 Z " fill="#000000"/><text fill="#000000" font-family="sans-serif" font-size="14" lengthAdjust="spacing" textLength="145.5576" x="930.291" y="761.3467">FahrzeugPersistence</text><line style="stroke:#181818;stroke-width:0.5;" x1="800.5" x2="1173.1396" y1="772.5" y2="772.5"/><line style="stroke:#181818;stroke-width:0.5;" x1="800.5" x2="1173.1396" y1="780.5" y2="780.5"/><ellipse cx="810.5" cy="794.1484" fill="#84BE84" rx="3" ry="3" style="stroke:#038048;stroke-width:1;"/><text fill="#000000" font-family="sans-serif" font-size="14" lengthAdjust="spacing" textLength="348.6396" x="819.5" y="797.4951">saveFahrzeuge(fahrzeuge: List&lt;Fahrzeug&gt;): void</text><ellipse cx="810.5" cy="810.4453" fill="#84BE84" rx="3" ry="3" style="stroke:#038048;stroke-width:1;"/><text fill="#000000" font-family="sans-serif" font-size="14" lengthAdjust="spacing" textLength="236.5234" x="819.5" y="813.792">loadFahrzeuge(): List&lt;Fahrzeug&gt;</text></g><!--class FuhrparkUI--><g id="elem_FuhrparkUI"><rect codeLine="73" fill="#F1F1F1" height="162.0781" id="FuhrparkUI" rx="2.5" ry="2.5" style="stroke:#181818;stroke-width:0.5;" width="266.8574" x="1242.5" y="42"/><ellipse cx="1333.0488" cy="58" fill="#ADD1B2" rx="11" ry="11" style="stroke:#181818;stroke-width:1;"/><path d="M1336.0176,63.6406 Q1335.4395,63.9375 1334.7988,64.0781 Q1334.1582,64.2344 1333.4551,64.2344 Q1330.9551,64.2344 1329.627,62.5938 Q1328.3145,60.9375 1328.3145,57.8125 Q1328.3145,54.6875 1329.627,53.0313 Q1330.9551,51.375 1333.4551,51.375 Q1334.1582,51.375 1334.7988,51.5313 Q1335.4551,51.6875 1336.0176,51.9844 L1336.0176,54.7031 Q1335.3926,54.125 1334.7988,53.8594 Q1334.2051,53.5781 1333.5801,53.5781 Q1332.2363,53.5781 1331.5488,54.6563 Q1330.8613,55.7188 1330.8613,57.8125 Q1330.8613,59.9063 1331.5488,60.9844 Q1332.2363,62.0469 1333.5801,62.0469 Q1334.2051,62.0469 1334.7988,61.7813 Q1335.3926,61.5 1336.0176,60.9219 L1336.0176,63.6406 Z " fill="#000000"/><text fill="#000000" font-family="sans-serif" font-size="14" lengthAdjust="spacing" textLength="77.2598" x="1353.5488" y="62.8467">FuhrparkUI</text><line style="stroke:#181818;stroke-width:0.5;" x1="1243.5" x2="1508.3574" y1="74" y2="74"/><rect fill="none" height="6" style="stroke:#C82930;stroke-width:1;" width="6" x="1250.5" y="84.6484"/><text fill="#000000" font-family="sans-serif" font-size="14" lengthAdjust="spacing" textLength="239.4902" x="1262.5" y="90.9951">fahrzeugService: FahrzeugService</text><rect fill="none" height="6" style="stroke:#C82930;stroke-width:1;" width="6" x="1250.5" y="100.9453"/><text fill="#000000" font-family="sans-serif" font-size="14" lengthAdjust="spacing" textLength="240.8574" x="1262.5" y="107.292">fahrzeugFactory: FahrzeugFactory</text><rect fill="none" height="6" style="stroke:#C82930;stroke-width:1;" width="6" x="1250.5" y="117.2422"/><text fill="#000000" font-family="sans-serif" font-size="14" lengthAdjust="spacing" textLength="152.1953" x="1262.5" y="123.5889">fahrzeugTable: JTable</text><rect fill="none" height="6" style="stroke:#C82930;stroke-width:1;" width="6" x="1250.5" y="133.5391"/><text fill="#000000" font-family="sans-serif" font-size="14" lengthAdjust="spacing" textLength="232.1963" x="1262.5" y="139.8857">tableModel: FahrzeugTableModel</text><line style="stroke:#181818;stroke-width:0.5;" x1="1243.5" x2="1508.3574" y1="147.1875" y2="147.1875"/><ellipse cx="1253.5" cy="160.8359" fill="#84BE84" rx="3" ry="3" style="stroke:#038048;stroke-width:1;"/><text fill="#000000" font-family="sans-serif" font-size="14" lengthAdjust="spacing" textLength="141.0527" x="1262.5" y="164.1826">addFahrzeug(): void</text><ellipse cx="1253.5" cy="177.1328" fill="#84BE84" rx="3" ry="3" style="stroke:#038048;stroke-width:1;"/><text fill="#000000" font-family="sans-serif" font-size="14" lengthAdjust="spacing" textLength="141.5791" x="1262.5" y="180.4795">editFahrzeug(): void</text><ellipse cx="1253.5" cy="193.4297" fill="#84BE84" rx="3" ry="3" style="stroke:#038048;stroke-width:1;"/><text fill="#000000" font-family="sans-serif" font-size="14" lengthAdjust="spacing" textLength="158.8057" x="1262.5" y="196.7764">deleteFahrzeug(): void</text></g><!--class FahrzeugTableModel--><g id="elem_FahrzeugTableModel"><rect codeLine="83" fill="#F1F1F1" height="162.0781" id="FahrzeugTableModel" rx="2.5" ry="2.5" style="stroke:#181818;stroke-width:0.5;" width="388.127" x="1212" y="269.5"/><ellipse cx="1329.0449" cy="285.5" fill="#ADD1B2" rx="11" ry="11" style="stroke:#181818;stroke-width:1;"/><path d="M1332.0137,291.1406 Q1331.4355,291.4375 1330.7949,291.5781 Q1330.1543,291.7344 1329.4512,291.7344 Q1326.9512,291.7344 1325.623,290.0938 Q1324.3105,288.4375 1324.3105,285.3125 Q1324.3105,282.1875 1325.623,280.5313 Q1326.9512,278.875 1329.4512,278.875 Q1330.1543,278.875 1330.7949,279.0313 Q1331.4512,279.1875 1332.0137,279.4844 L1332.0137,282.2031 Q1331.3887,281.625 1330.7949,281.3594 Q1330.2012,281.0781 1329.5762,281.0781 Q1328.2324,281.0781 1327.5449,282.1563 Q1326.8574,283.2188 1326.8574,285.3125 Q1326.8574,287.4063 1327.5449,288.4844 Q1328.2324,289.5469 1329.5762,289.5469 Q1330.2012,289.5469 1330.7949,289.2813 Q1331.3887,289 1332.0137,288.4219 L1332.0137,291.1406 Z " fill="#000000"/><text fill="#000000" font-family="sans-serif" font-size="14" lengthAdjust="spacing" textLength="145.5371" x="1349.5449" y="290.3467">FahrzeugTableModel</text><line style="stroke:#181818;stroke-width:0.5;" x1="1213" x2="1599.127" y1="301.5" y2="301.5"/><rect fill="none" height="6" style="stroke:#C82930;stroke-width:1;" width="6" x="1220" y="312.1484"/><text fill="#000000" font-family="sans-serif" font-size="14" lengthAdjust="spacing" textLength="192.5547" x="1232" y="318.4951">fahrzeuge: List&lt;Fahrzeug&gt;</text><rect fill="none" height="6" style="stroke:#C82930;stroke-width:1;" width="6" x="1220" y="328.4453"/><text fill="#000000" font-family="sans-serif" font-size="14" lengthAdjust="spacing" textLength="235.7441" x="1232" y="334.792">persistence: FahrzeugPersistence</text><line style="stroke:#181818;stroke-width:0.5;" x1="1213" x2="1599.127" y1="342.0938" y2="342.0938"/><ellipse cx="1223" cy="355.7422" fill="#84BE84" rx="3" ry="3" style="stroke:#038048;stroke-width:1;"/><text fill="#000000" font-family="sans-serif" font-size="14" lengthAdjust="spacing" textLength="277.0605" x="1232" y="359.0889">addFahrzeug(fahrzeug: Fahrzeug): void</text><ellipse cx="1223" cy="372.0391" fill="#84BE84" rx="3" ry="3" style="stroke:#038048;stroke-width:1;"/><text fill="#000000" font-family="sans-serif" font-size="14" lengthAdjust="spacing" textLength="362.127" x="1232" y="375.3857">updateFahrzeug(row: int, fahrzeug: Fahrzeug): void</text><ellipse cx="1223" cy="388.3359" fill="#84BE84" rx="3" ry="3" style="stroke:#038048;stroke-width:1;"/><text fill="#000000" font-family="sans-serif" font-size="14" lengthAdjust="spacing" textLength="221.3613" x="1232" y="391.6826">removeFahrzeug(row: int): void</text><ellipse cx="1223" cy="404.6328" fill="#84BE84" rx="3" ry="3" style="stroke:#038048;stroke-width:1;"/><text fill="#000000" font-family="sans-serif" font-size="14" lengthAdjust="spacing" textLength="226.2354" x="1232" y="407.9795">getFahrzeug(row: int): Fahrzeug</text><ellipse cx="1223" cy="420.9297" fill="#84BE84" rx="3" ry="3" style="stroke:#038048;stroke-width:1;"/><text fill="#000000" font-family="sans-serif" font-size="14" lengthAdjust="spacing" textLength="115.917" x="1232" y="424.2764">saveData(): void</text></g><!--class FahrzeugDialog--><g id="elem_FahrzeugDialog"><rect codeLine="93" fill="#F1F1F1" height="145.7813" id="FahrzeugDialog" rx="2.5" ry="2.5" style="stroke:#181818;stroke-width:0.5;" width="298.3438" x="1635" y="277.5"/><ellipse cx="1725.1353" cy="293.5" fill="#ADD1B2" rx="11" ry="11" style="stroke:#181818;stroke-width:1;"/><path d="M1728.104,299.1406 Q1727.5259,299.4375 1726.8853,299.5781 Q1726.2446,299.7344 1725.5415,299.7344 Q1723.0415,299.7344 1721.7134,298.0938 Q1720.4009,296.4375 1720.4009,293.3125 Q1720.4009,290.1875 1721.7134,288.5313 Q1723.0415,286.875 1725.5415,286.875 Q1726.2446,286.875 1726.8853,287.0313 Q1727.5415,287.1875 1728.104,287.4844 L1728.104,290.2031 Q1727.479,289.625 1726.8853,289.3594 Q1726.2915,289.0781 1725.6665,289.0781 Q1724.3228,289.0781 1723.6353,290.1563 Q1722.9478,291.2188 1722.9478,293.3125 Q1722.9478,295.4063 1723.6353,296.4844 Q1724.3228,297.5469 1725.6665,297.5469 Q1726.2915,297.5469 1726.8853,297.2813 Q1727.479,297 1728.104,296.4219 L1728.104,299.1406 Z " fill="#000000"/><text fill="#000000" font-family="sans-serif" font-size="14" lengthAdjust="spacing" textLength="109.5732" x="1745.6353" y="298.3467">FahrzeugDialog</text><line style="stroke:#181818;stroke-width:0.5;" x1="1636" x2="1932.3438" y1="309.5" y2="309.5"/><rect fill="none" height="6" style="stroke:#C82930;stroke-width:1;" width="6" x="1643" y="320.1484"/><text fill="#000000" font-family="sans-serif" font-size="14" lengthAdjust="spacing" textLength="187.7285" x="1655" y="326.4951">typComboBox: JComboBox</text><rect fill="none" height="6" style="stroke:#C82930;stroke-width:1;" width="6" x="1643" y="336.4453"/><text fill="#000000" font-family="sans-serif" font-size="14" lengthAdjust="spacing" textLength="155.5928" x="1655" y="342.792">markeField: JTextField</text><rect fill="none" height="6" style="stroke:#C82930;stroke-width:1;" width="6" x="1643" y="352.7422"/><text fill="#000000" font-family="sans-serif" font-size="14" lengthAdjust="spacing" textLength="158.3818" x="1655" y="359.0889">modellField: JTextField</text><rect fill="none" height="6" style="stroke:#C82930;stroke-width:1;" width="6" x="1643" y="369.0391"/><text fill="#000000" font-family="sans-serif" font-size="14" lengthAdjust="spacing" textLength="272.3438" x="1655" y="375.3857">kennzeichenField: JFormattedTextField</text><rect fill="none" height="6" style="stroke:#C82930;stroke-width:1;" width="6" x="1643" y="385.3359"/><text fill="#000000" font-family="sans-serif" font-size="14" lengthAdjust="spacing" textLength="215.2773" x="1655" y="391.6826">wertField: JFormattedTextField</text><line style="stroke:#181818;stroke-width:0.5;" x1="1636" x2="1932.3438" y1="398.9844" y2="398.9844"/><ellipse cx="1646" cy="412.6328" fill="#84BE84" rx="3" ry="3" style="stroke:#038048;stroke-width:1;"/><text fill="#000000" font-family="sans-serif" font-size="14" lengthAdjust="spacing" textLength="156.8369" x="1655" y="415.9795">showDialog(): boolean</text></g><!--reverse link Fahrzeug to PKW--><g id="link_Fahrzeug_PKW"><path codeLine="104" d="M264.9777,1190.4444 C234.2377,1218.3744 216.19,1234.78 190.18,1258.41 " fill="none" id="Fahrzeug-backto-PKW" style="stroke:#181818;stroke-width:1;"/><polygon fill="none" points="278.3,1178.34,260.9429,1186.0037,269.0126,1194.8852,278.3,1178.34" style="stroke:#181818;stroke-width:1;"/></g><!--reverse link Fahrzeug to LKW--><g id="link_Fahrzeug_LKW"><path codeLine="105" d="M406.1619,1215.6387 C405.9019,1237.0987 405.87,1240.17 405.66,1258.35 " fill="none" id="Fahrzeug-backto-LKW" style="stroke:#181818;stroke-width:1;"/><polygon fill="none" points="406.38,1197.64,400.1624,1215.566,412.1615,1215.7114,406.38,1197.64" style="stroke:#181818;stroke-width:1;"/></g><!--reverse link FahrzeugFactory to FahrzeugFactoryImpl--><g id="link_FahrzeugFactory_FahrzeugFactoryImpl"><path codeLine="106" d="M578,409.18 C578,447.77 578,488.05 578,526.68 " fill="none" id="FahrzeugFactory-backto-FahrzeugFactoryImpl" style="stroke:#181818;stroke-width:1;stroke-dasharray:7.0,7.0;"/><polygon fill="none" points="578,391.18,572,409.18,584,409.18,578,391.18" style="stroke:#181818;stroke-width:1;"/></g><!--reverse link FahrzeugService to FahrzeugServiceImpl--><g id="link_FahrzeugService_FahrzeugServiceImpl"><path codeLine="107" d="M987,433.13 C987,458.02 987,468.7 987,494.35 " fill="none" id="FahrzeugService-backto-FahrzeugServiceImpl" style="stroke:#181818;stroke-width:1;stroke-dasharray:7.0,7.0;"/><polygon fill="none" points="987,415.13,981,433.13,993,433.13,987,415.13" style="stroke:#181818;stroke-width:1;"/></g><!--reverse link FuhrparkUI to FahrzeugTableModel--><g id="link_FuhrparkUI_FahrzeugTableModel"><path codeLine="110" d="M1388.2412,216.0354 C1391.0512,237.1754 1392.51,248.09 1395.32,269.24 " fill="none" id="FuhrparkUI-backto-FahrzeugTableModel" style="stroke:#181818;stroke-width:1;"/><polygon fill="none" points="1386.66,204.14,1383.4855,210.6147,1388.2412,216.0354,1391.4157,209.5606,1386.66,204.14" style="stroke:#181818;stroke-width:1;"/></g><!--reverse link FuhrparkUI to FahrzeugDialog--><g id="link_FuhrparkUI_FahrzeugDialog"><path codeLine="111" d="M1520.3667,191.6288 C1556.0067,209.1688 1583.44,223.5 1618,243 C1636.79,253.6 1656.38,265.43 1675.25,277.25 " fill="none" id="FuhrparkUI-backto-FahrzeugDialog" style="stroke:#181818;stroke-width:1;"/><polygon fill="none" points="1509.6,186.33,1513.2171,192.5683,1520.3667,191.6288,1516.7496,185.3905,1509.6,186.33" style="stroke:#181818;stroke-width:1;"/></g><!--reverse link FuhrparkUI to FahrzeugService--><g id="link_FuhrparkUI_FahrzeugService"><path codeLine="112" d="M1232.0183,207.4683 C1184.5283,234.9983 1142.04,259.63 1096.77,285.87 " fill="none" id="FuhrparkUI-backto-FahrzeugService" style="stroke:#181818;stroke-width:1;"/><polygon fill="none" points="1242.4,201.45,1235.203,200.9986,1232.0183,207.4683,1239.2152,207.9197,1242.4,201.45" style="stroke:#181818;stroke-width:1;"/></g><!--reverse link FuhrparkUI to FahrzeugFactory--><g id="link_FuhrparkUI_FahrzeugFactory"><path codeLine="113" d="M1230.4223,144.1424 C1112.3223,162.4924 948.33,193.39 801,243 C748.55,260.66 692.33,287.57 649.47,309.91 " fill="none" id="FuhrparkUI-backto-FahrzeugFactory" style="stroke:#181818;stroke-width:1;"/><polygon fill="none" points="1242.28,142.3,1235.737,139.2686,1230.4223,144.1424,1236.9653,147.1738,1242.28,142.3" style="stroke:#181818;stroke-width:1;"/></g><!--reverse link FahrzeugTableModel to FahrzeugPersistence--><g id="link_FahrzeugTableModel_FahrzeugPersistence"><path codeLine="114" d="M1351.589,441.7285 C1308.599,509.1585 1247.29,595.27 1172,664.5 C1139.95,693.97 1099.36,720.27 1064.37,740.3 " fill="none" id="FahrzeugTableModel-backto-FahrzeugPersistence" style="stroke:#181818;stroke-width:1;"/><polygon fill="none" points="1358.04,431.61,1351.4416,434.5189,1351.589,441.7285,1358.1873,438.8196,1358.04,431.61" style="stroke:#181818;stroke-width:1;"/></g><!--reverse link FahrzeugServiceImpl to FahrzeugPersistence--><g id="link_FahrzeugServiceImpl_FahrzeugPersistence"><path codeLine="115" d="M987,652.69 C987,686.08 987,712.45 987,740.45 " fill="none" id="FahrzeugServiceImpl-backto-FahrzeugPersistence" style="stroke:#181818;stroke-width:1;"/><polygon fill="none" points="987,640.69,983,646.69,987,652.69,991,646.69,987,640.69" style="stroke:#181818;stroke-width:1;"/></g><!--reverse link FahrzeugTableModel to Fahrzeug--><g id="link_FahrzeugTableModel_Fahrzeug"><path codeLine="118" d="M1390.8406,443.4998 C1369.0406,553.1798 1316.59,736.91 1191,845.5 C1004.51,1006.75 707.09,1047.08 537.55,1056.45 " fill="none" id="FahrzeugTableModel-backto-Fahrzeug" style="stroke:#181818;stroke-width:1;"/><polygon fill="none" points="1393.18,431.73,1388.0871,436.8351,1390.8406,443.4998,1395.9336,438.3947,1393.18,431.73" style="stroke:#181818;stroke-width:1;"/><text fill="#000000" font-family="sans-serif" font-size="13" lengthAdjust="spacing" textLength="23.0356" x="545.6951" y="1052.9063">0..*</text></g><!--link FahrzeugService to Fahrzeug--><g id="link_FahrzeugService_Fahrzeug"><path codeLine="119" d="M890.51,415.24 C862.39,430.98 830.9,446.02 800,455.5 C705.31,484.54 422.9,421.46 356,494.5 C300.79,554.77 337.876,768.7725 371.606,915.5225 " fill="none" id="FahrzeugService-to-Fahrzeug" style="stroke:#181818;stroke-width:1;stroke-dasharray:7.0,7.0;"/><polygon fill="#181818" points="372.95,921.37,374.8323,911.7027,371.83,916.4971,367.0356,913.4947,372.95,921.37" style="stroke:#181818;stroke-width:1;"/><text fill="#000000" font-family="sans-serif" font-size="13" lengthAdjust="spacing" textLength="45.6904" x="333" y="685.5669">&#171;uses&#187;</text></g><!--link FahrzeugFactory to PKW--><g id="link_FahrzeugFactory_PKW"><path codeLine="120" d="M373.45,363.09 C239.45,383.06 89,434.81 89,566.5 C89,566.5 89,566.5 89,1060.5 C89,1129.11 102.1596,1201.0571 113.6896,1252.1671 " fill="none" id="FahrzeugFactory-to-PKW" style="stroke:#181818;stroke-width:1;stroke-dasharray:7.0,7.0;"/><polygon fill="#181818" points="115.01,1258.02,116.9314,1248.3604,113.9097,1253.1426,109.1275,1250.1209,115.01,1258.02" style="stroke:#181818;stroke-width:1;"/><text fill="#000000" font-family="sans-serif" font-size="13" lengthAdjust="spacing" textLength="64.2319" x="90" y="785.5669">&#171;creates&#187;</text></g><!--link FahrzeugFactory to LKW--><g id="link_FahrzeugFactory_LKW"><path codeLine="121" d="M398.91,391.02 C311.53,421.95 225,475.55 225,566.5 C225,566.5 225,566.5 225,1060.5 C225,1123.46 226.83,1144.63 261,1197.5 C275.84,1220.46 292.0393,1237.2314 313.2793,1254.4514 " fill="none" id="FahrzeugFactory-to-LKW" style="stroke:#181818;stroke-width:1;stroke-dasharray:7.0,7.0;"/><polygon fill="#181818" points="317.94,1258.23,313.468,1249.455,314.0561,1255.0812,308.4299,1255.6692,317.94,1258.23" style="stroke:#181818;stroke-width:1;"/><text fill="#000000" font-family="sans-serif" font-size="13" lengthAdjust="spacing" textLength="64.2319" x="226" y="785.5669">&#171;creates&#187;</text></g><!--link FahrzeugPersistence to Fahrzeug--><g id="link_FahrzeugPersistence_Fahrzeug"><path codeLine="122" d="M904.04,821.62 C808.28,867.35 655.0243,940.5344 542.9543,994.0544 " fill="none" id="FahrzeugPersistence-to-Fahrzeug" style="stroke:#181818;stroke-width:1;stroke-dasharray:7.0,7.0;"/><polygon fill="#181818" points="537.54,996.64,547.3852,996.3711,542.0519,994.4853,543.9377,989.152,537.54,996.64" style="stroke:#181818;stroke-width:1;"/><text fill="#000000" font-family="sans-serif" font-size="13" lengthAdjust="spacing" textLength="45.6904" x="832" y="866.5669">&#171;uses&#187;</text><text fill="#000000" font-family="sans-serif" font-size="13" lengthAdjust="spacing" textLength="23.0356" x="545.6845" y="989.6385">0..*</text></g><!--SRC=[vLPBRzim3BxdLmYvh5sJO6SZ2D2k2D0r1GgatSwqpTg2PScGvQJ9sly- -It9zhhJTjYXgK5-53-AB-K9vHb8I4a6GG8HxjM98P4OAE0HmzciaPFvWmYHpSdF6I7Wvqf2e4Z08C_95c9vnYAgT8GiIOASdv46CNAFx9MaF6eqASW4NLbvC7E4cKIQUoGKXQzPr39roYpK5ObGtVU-BYw7weVIuK2HjmgBZqOT10qDuuhPg7MjiQaFx1_B84fp8upAl5POCGwCdqxPmBEFEZCnn-j45TenyXyebUNWVQP_whGytl_eCf9JTSuOe3hhQ2bNZJW6TSze2i2Pph57V24O0kz9x7kxqarhUQKjSyEorFMs1eUTmO51Y0baSAPA7-ZaLZEvvZ4WZr0cHPQnWaSZV7RM6OEhrQm6fxZStesQtgCyq03hgjR1eNo10Bk2RjHD15S4mh1LNRmq7rw7jZDOP24e_6EuZgt3ZhJFPM_N6rph2cYbLGfsD5VhLh9fWBf2qI0oVdZ3nCYSSmTtQSQwJ6OeS-qAUO0zhyTU-5zTrx1ijdeq2ddgoYQGQCPcZB75sAXSaCgEsCDouSp91N77Xn7nk_uRPBAXPMJotr0p6z0eche9RSg6kgESmy58OriewARJhXSc8FnzxcrUptSMdIAMUaicptTT2xpOxU6v_UB0chltt6Gui2VGz-MHRzN_TkkLtzM-wQsVEjb8gzcHOqZLXCefTREkHygdzpcu11pjfRyn9wGuLbjfGJuob9YAmz1mUgmO26UMb1Lu2me-kh5R2apqhoBTN5z5weiRyQfJt7wQ3wCjHHQMwSTNLNrRBwGfhT6dBMGhP0fAOUXYZ_gzy058nnUBOyrzP7T-8j_r8qJwUhFcFfufnleB-Qnx1AxVbiloxU58TeQa7P3hjzLgR3pDt0Li0OsDrD0v8Wy7VFgU5ThzIETC8Eh8fxHjUq-esxOUQHeJPlR0sAATmkfmgyEMDoCtx_YQVrcjFi_xsdNlTBNQz2ztZwpNHOxvPZD8Keahdv8bf5uNKwZT9CgSuoNIuMQu_mK0]--></g></svg>